<svg width="14" height="14" viewBox="0 0 14 14" fill="none" xmlns="http://www.w3.org/2000/svg">
<path d="M5.90625 0H8.09375C8.45742 0 8.75 0.292578 8.75 0.65625V5.25H11.148C11.6348 5.25 11.8781 5.83789 11.5336 6.18242L7.37461 10.3441C7.16953 10.5492 6.8332 10.5492 6.62812 10.3441L2.46367 6.18242C2.11914 5.83789 2.3625 5.25 2.84922 5.25H5.25V0.65625C5.25 0.292578 5.54258 0 5.90625 0ZM14 10.2812V13.3438C14 13.7074 13.7074 14 13.3438 14H0.65625C0.292578 14 0 13.7074 0 13.3438V10.2812C0 9.91758 0.292578 9.625 0.65625 9.625H4.66758L6.00742 10.9648C6.55703 11.5145 7.44297 11.5145 7.99258 10.9648L9.33242 9.625H13.3438C13.7074 9.625 14 9.91758 14 10.2812ZM10.6094 12.6875C10.6094 12.3867 10.3633 12.1406 10.0625 12.1406C9.76172 12.1406 9.51562 12.3867 9.51562 12.6875C9.51562 12.9883 9.76172 13.2344 10.0625 13.2344C10.3633 13.2344 10.6094 12.9883 10.6094 12.6875ZM12.3594 12.6875C12.3594 12.3867 12.1133 12.1406 11.8125 12.1406C11.5117 12.1406 11.2656 12.3867 11.2656 12.6875C11.2656 12.9883 11.5117 13.2344 11.8125 13.2344C12.1133 13.2344 12.3594 12.9883 12.3594 12.6875Z" fill="#D0D0D0"/>
</svg>
