<svg width="17" height="15" viewBox="0 0 17 15" fill="none" xmlns="http://www.w3.org/2000/svg">
<path d="M6.53846 10.2273C6.53846 10.5114 6.49589 10.8026 6.41076 11.1009C6.32562 11.3991 6.17919 11.669 5.97145 11.9105C5.76372 12.152 5.51683 12.2727 5.23077 12.2727C4.94471 12.2727 4.69782 12.152 4.49008 11.9105C4.28235 11.669 4.13592 11.3991 4.05078 11.1009C3.96565 10.8026 3.92308 10.5114 3.92308 10.2273C3.92308 9.94318 3.96565 9.65199 4.05078 9.35369C4.13592 9.0554 4.28235 8.78551 4.49008 8.54403C4.69782 8.30256 4.94471 8.18182 5.23077 8.18182C5.51683 8.18182 5.76372 8.30256 5.97145 8.54403C6.17919 8.78551 6.32562 9.0554 6.41076 9.35369C6.49589 9.65199 6.53846 9.94318 6.53846 10.2273ZM13.0769 10.2273C13.0769 10.5114 13.0344 10.8026 12.9492 11.1009C12.8641 11.3991 12.7176 11.669 12.5099 11.9105C12.3022 12.152 12.0553 12.2727 11.7692 12.2727C11.4832 12.2727 11.2363 12.152 11.0285 11.9105C10.8208 11.669 10.6744 11.3991 10.5892 11.1009C10.5041 10.8026 10.4615 10.5114 10.4615 10.2273C10.4615 9.94318 10.5041 9.65199 10.5892 9.35369C10.6744 9.0554 10.8208 8.78551 11.0285 8.54403C11.2363 8.30256 11.4832 8.18182 11.7692 8.18182C12.0553 8.18182 12.3022 8.30256 12.5099 8.54403C12.7176 8.78551 12.8641 9.0554 12.9492 9.35369C13.0344 9.65199 13.0769 9.94318 13.0769 10.2273ZM14.7115 10.2273C14.7115 9.375 14.4766 8.65057 14.0066 8.05398C13.5367 7.45739 12.8998 7.15909 12.0962 7.15909C11.8169 7.15909 11.1528 7.23366 10.104 7.38281C9.62039 7.46094 9.08574 7.5 8.5 7.5C7.91426 7.5 7.37961 7.46094 6.89603 7.38281C5.86078 7.23366 5.19671 7.15909 4.90385 7.15909C4.10016 7.15909 3.46334 7.45739 2.99339 8.05398C2.52344 8.65057 2.28846 9.375 2.28846 10.2273C2.28846 10.8523 2.39744 11.3974 2.61538 11.8626C2.83333 12.3278 3.10917 12.6935 3.44291 12.9599C3.77664 13.2262 4.19211 13.4393 4.6893 13.5991C5.1865 13.7589 5.66326 13.8636 6.11959 13.9134C6.57592 13.9631 7.08333 13.9879 7.64183 13.9879H9.35817C9.91667 13.9879 10.4241 13.9631 10.8804 13.9134C11.3367 13.8636 11.8135 13.7589 12.3107 13.5991C12.8079 13.4393 13.2234 13.2262 13.5571 12.9599C13.8908 12.6935 14.1667 12.3278 14.3846 11.8626C14.6026 11.3974 14.7115 10.8523 14.7115 10.2273ZM17 8.35227C17 9.82244 16.7923 10.9979 16.3768 11.8786C16.118 12.4254 15.7587 12.8977 15.299 13.2955C14.8392 13.6932 14.3591 13.9986 13.8585 14.2116C13.3579 14.4247 12.7789 14.5934 12.1217 14.7177C11.4644 14.842 10.8804 14.9201 10.3696 14.9521C9.85877 14.984 9.29006 15 8.66346 15C8.13221 15 7.64864 14.9893 7.21274 14.968C6.77684 14.9467 6.27454 14.9023 5.70583 14.8349C5.13712 14.7674 4.61779 14.6609 4.14784 14.5153C3.67788 14.3697 3.21134 14.1868 2.7482 13.9666C2.28506 13.7464 1.873 13.4588 1.51202 13.1037C1.15104 12.7486 0.858173 12.3402 0.633413 11.8786C0.211138 11.005 0 9.82955 0 8.35227C0 6.66903 0.463141 5.26278 1.38942 4.13352C1.20553 3.55114 1.11358 2.94744 1.11358 2.32244C1.11358 1.49858 1.28726 0.724432 1.63462 0C2.37019 0 3.01723 0.14027 3.57572 0.42081C4.13421 0.701349 4.77784 1.13991 5.50661 1.73651C6.50781 1.48793 7.5601 1.36364 8.66346 1.36364C9.67147 1.36364 10.625 1.47727 11.524 1.70455C12.2392 1.12216 12.876 0.692472 13.4345 0.415483C13.993 0.138494 14.6366 0 15.3654 0C15.7127 0.724432 15.8864 1.49858 15.8864 2.32244C15.8864 2.94034 15.7945 3.53693 15.6106 4.11222C16.5369 5.24858 17 6.66193 17 8.35227Z" fill="#DDE1E2"/>
</svg>
