<svg width="15" height="15" viewBox="0 0 15 15" fill="none" xmlns="http://www.w3.org/2000/svg">
<path d="M0.142548 5.23125C0.142548 5.23125 -0.222452 4.96438 0.215673 4.60938L1.23755 3.68563C1.23755 3.68563 1.52942 3.375 1.8388 3.64563L11.2644 10.8594V14.3181C11.2644 14.3181 11.26 14.8619 10.5707 14.8019L0.141923 5.23063L0.142548 5.23125Z" fill="#D0D0D0"/>
<path d="M2.57236 7.46061L0.142361 9.69311C0.142361 9.69311 -0.107639 9.88061 0.142361 10.2162L1.27049 11.2537C1.27049 11.2537 1.53861 11.5444 1.93424 11.2131L4.50986 9.23936L2.57236 7.46061ZM6.83736 7.47874L11.2936 4.03999L11.2642 0.599364C11.2642 0.599364 11.0736 -0.151886 10.4392 0.239364L4.50986 5.69374L6.83736 7.47874Z" fill="#D0D0D0"/>
<path d="M10.5701 14.8063C10.8288 15.0738 11.1426 14.9863 11.1426 14.9863L14.6151 13.2569C15.0595 12.9507 14.997 12.5707 14.997 12.5707V2.24253C14.997 1.78878 14.5376 1.63191 14.5376 1.63191L11.5276 0.16503C10.8701 -0.245595 10.4395 0.239405 10.4395 0.239405C10.4395 0.239405 10.9932 -0.16372 11.2645 0.599405V14.2557C11.2645 14.3494 11.2445 14.4413 11.2051 14.5244C11.1257 14.6863 10.9538 14.8369 10.5413 14.7744L10.5701 14.8063Z" fill="#D0D0D0"/>
</svg>
