<svg width="22" height="28" viewBox="0 0 22 28" fill="none" xmlns="http://www.w3.org/2000/svg">
<g filter="url(#filter0_d_64_2915)">
<rect x="1.32617" y="0.39502" width="19.9123" height="25.72" rx="1.32137" fill="#F8F8F8"/>
<rect x="4.81055" y="3.71375" width="6.13961" height="0.995613" fill="#EDEDED"/>
<rect x="4.81055" y="6.86658" width="3.98245" height="0.829677" fill="#D2D2D2"/>
<rect x="4.81055" y="17.6523" width="3.15277" height="0.829677" fill="#D2D2D2"/>
<rect x="4.81055" y="8.85779" width="3.98245" height="0.497806" fill="#EDEDED"/>
<rect x="4.81055" y="19.8096" width="4.81213" height="0.497806" fill="#EDEDED"/>
<rect x="10.9502" y="19.8096" width="3.15277" height="0.497806" fill="#F7D3D1"/>
<rect x="4.81055" y="10.5171" width="8.29677" height="0.497806" fill="#D2D2D2"/>
<rect x="4.81055" y="21.6348" width="7.79897" height="0.497806" fill="#D2D2D2"/>
<rect x="4.81055" y="14.1677" width="12.943" height="0.497806" fill="#D2D2D2"/>
<rect x="4.81055" y="12.3424" width="3.98245" height="0.497806" fill="#D2D2D2"/>
<rect x="9.62402" y="12.3424" width="3.98245" height="0.497806" fill="#D2D2D2"/>
<rect x="13.7734" y="21.6348" width="3.98245" height="0.497806" fill="#D2D2D2"/>
<rect x="14.7656" y="12.3424" width="2.98684" height="0.497806" fill="#F7D3D1"/>
<rect x="14.1045" y="10.5171" width="3.65058" height="0.497806" fill="#D2D2D2"/>
<g filter="url(#filter1_d_64_2915)">
<path d="M12.4363 12.2951C12.3952 12.1524 12.3376 12.0263 12.2633 11.9168C12.189 11.8053 12.0981 11.7115 11.9905 11.6352C11.8849 11.557 11.7637 11.4974 11.6269 11.4564C11.492 11.4153 11.3424 11.3948 11.1782 11.3948C10.8712 11.3948 10.6014 11.471 10.3687 11.6235C10.138 11.776 9.95815 11.9979 9.82911 12.2892C9.70007 12.5786 9.63555 12.9325 9.63555 13.3509C9.63555 13.7693 9.69909 14.1251 9.82618 14.4184C9.95326 14.7117 10.1331 14.9355 10.3658 15.09C10.5985 15.2425 10.8732 15.3187 11.1899 15.3187C11.4773 15.3187 11.7227 15.2679 11.926 15.1662C12.1313 15.0626 12.2877 14.917 12.3952 14.7293C12.5047 14.5416 12.5595 14.3197 12.5595 14.0635L12.8176 14.1017H11.2691V13.1456H13.7824V13.9022C13.7824 14.4301 13.671 14.8837 13.4481 15.263C13.2252 15.6404 12.9182 15.9317 12.5272 16.137C12.1362 16.3403 11.6885 16.442 11.184 16.442C10.6209 16.442 10.1263 16.3178 9.70007 16.0695C9.27385 15.8193 8.94147 15.4644 8.70295 15.0049C8.46637 14.5435 8.34809 13.9961 8.34809 13.3626C8.34809 12.8758 8.41847 12.4417 8.55924 12.0605C8.70197 11.6773 8.90139 11.3527 9.15752 11.0868C9.41364 10.8209 9.7118 10.6186 10.052 10.4798C10.3922 10.3409 10.7607 10.2715 11.1576 10.2715C11.4978 10.2715 11.8146 10.3214 12.1078 10.4211C12.4011 10.5189 12.6611 10.6577 12.8879 10.8375C13.1167 11.0174 13.3034 11.2315 13.4481 11.4798C13.5928 11.7262 13.6856 11.9979 13.7267 12.2951H12.4363ZM16.7481 16.4478C16.2926 16.4478 15.8986 16.3511 15.5662 16.1575C15.2358 15.962 14.9807 15.6902 14.8008 15.3422C14.6209 14.9922 14.531 14.5865 14.531 14.1251C14.531 13.6598 14.6209 13.2531 14.8008 12.9051C14.9807 12.5551 15.2358 12.2834 15.5662 12.0898C15.8986 11.8943 16.2926 11.7965 16.7481 11.7965C17.2037 11.7965 17.5967 11.8943 17.9271 12.0898C18.2595 12.2834 18.5156 12.5551 18.6955 12.9051C18.8753 13.2531 18.9653 13.6598 18.9653 14.1251C18.9653 14.5865 18.8753 14.9922 18.6955 15.3422C18.5156 15.6902 18.2595 15.962 17.9271 16.1575C17.5967 16.3511 17.2037 16.4478 16.7481 16.4478ZM16.754 15.48C16.9612 15.48 17.1343 15.4214 17.2731 15.3041C17.4119 15.1848 17.5165 15.0225 17.5869 14.8173C17.6592 14.612 17.6954 14.3783 17.6954 14.1163C17.6954 13.8543 17.6592 13.6207 17.5869 13.4154C17.5165 13.2101 17.4119 13.0478 17.2731 12.9286C17.1343 12.8093 16.9612 12.7497 16.754 12.7497C16.5448 12.7497 16.3688 12.8093 16.2261 12.9286C16.0853 13.0478 15.9788 13.2101 15.9064 13.4154C15.8361 13.6207 15.8009 13.8543 15.8009 14.1163C15.8009 14.3783 15.8361 14.612 15.9064 14.8173C15.9788 15.0225 16.0853 15.1848 16.2261 15.3041C16.3688 15.4214 16.5448 15.48 16.754 15.48Z" fill="#1C9AFF"/>
</g>
<path d="M9.1123 10.8531L8.42916 11.9275L2.87032 12.8401L6.35496 11.6786L9.1123 10.8531Z" fill="#1C9AFF"/>
<path d="M8.26855 12.1807L8.09859 12.7614L8.09859 13.255L2.70568 13.255L4.5156 12.9231L8.26855 12.1807Z" fill="#1C9AFF"/>
</g>
<defs>
<filter id="filter0_d_64_2915" x="0.665488" y="0.39502" width="21.2335" height="27.0413" filterUnits="userSpaceOnUse" color-interpolation-filters="sRGB">
<feFlood flood-opacity="0" result="BackgroundImageFix"/>
<feColorMatrix in="SourceAlpha" type="matrix" values="0 0 0 0 0 0 0 0 0 0 0 0 0 0 0 0 0 0 127 0" result="hardAlpha"/>
<feOffset dy="0.660684"/>
<feGaussianBlur stdDeviation="0.330342"/>
<feColorMatrix type="matrix" values="0 0 0 0 0 0 0 0 0 0 0 0 0 0 0 0 0 0 0.25 0"/>
<feBlend mode="normal" in2="BackgroundImageFix" result="effect1_dropShadow_64_2915"/>
<feBlend mode="normal" in="SourceGraphic" in2="effect1_dropShadow_64_2915" result="shape"/>
</filter>
<filter id="filter1_d_64_2915" x="7.68697" y="9.77597" width="11.9386" height="7.49776" filterUnits="userSpaceOnUse" color-interpolation-filters="sRGB">
<feFlood flood-opacity="0" result="BackgroundImageFix"/>
<feColorMatrix in="SourceAlpha" type="matrix" values="0 0 0 0 0 0 0 0 0 0 0 0 0 0 0 0 0 0 127 0" result="hardAlpha"/>
<feOffset dy="0.165171"/>
<feGaussianBlur stdDeviation="0.330342"/>
<feColorMatrix type="matrix" values="0 0 0 0 0 0 0 0 0 0 0 0 0 0 0 0 0 0 0.25 0"/>
<feBlend mode="normal" in2="BackgroundImageFix" result="effect1_dropShadow_64_2915"/>
<feBlend mode="normal" in="SourceGraphic" in2="effect1_dropShadow_64_2915" result="shape"/>
</filter>
</defs>
</svg>
