<svg width="22" height="28" viewBox="0 0 22 28" fill="none" xmlns="http://www.w3.org/2000/svg">
<g filter="url(#filter0_d_64_6854)">
<rect x="1.32617" y="0.414917" width="19.9123" height="25.72" rx="1.32748" fill="#2B3036"/>
<rect x="2.81934" y="7.55017" width="4.31432" height="1.32748" rx="0.497806" fill="#7A7DCA"/>
<rect x="15.2646" y="11.2008" width="4.97806" height="1.32748" rx="0.497806" fill="#7A7DCA"/>
<rect x="2.81934" y="11.2008" width="1.82529" height="1.32748" rx="0.497806" fill="#FF4911"/>
<rect x="17.2568" y="22.1525" width="2.98684" height="1.32748" rx="0.497806" fill="#FF4911"/>
<rect x="17.9189" y="18.502" width="2.3231" height="1.32748" rx="0.497806" fill="#FF4911"/>
<rect x="17.9189" y="14.8513" width="2.3231" height="1.32748" rx="0.497806" fill="#00B645"/>
<rect x="2.81934" y="18.5018" width="2.98684" height="1.32748" rx="0.497806" fill="#FF320C"/>
<rect x="2.81934" y="14.8513" width="1.82529" height="1.32748" rx="0.497806" fill="#EFA60E"/>
<rect x="9.12598" y="22.1525" width="6.13961" height="1.32748" rx="0.497806" fill="#EFA60E"/>
<rect x="8.62598" y="7.55017" width="5.80774" height="1.32748" rx="0.497806" fill="#EFA60E"/>
<rect x="2.81934" y="22.1525" width="4.31432" height="1.32748" rx="0.497806" fill="#B90FFF"/>
<rect x="15.9287" y="7.55017" width="4.31432" height="1.32748" rx="0.497806" fill="#B90FFF"/>
<rect x="12.4443" y="18.5018" width="3.81652" height="1.32748" rx="0.497806" fill="#00CB74"/>
<path d="M1.32617 1.7424C1.32617 1.00925 1.92051 0.414917 2.65366 0.414917H19.9109C20.6441 0.414917 21.2384 1.00925 21.2384 1.7424V5.55892H1.32617V1.7424Z" fill="#10BAFE"/>
<g filter="url(#filter1_d_64_6854)">
<path d="M5.96667 12.3973V11.2403H11.4179V12.3973H9.38585V17.8777H7.99873V12.3973H5.96667ZM15.7543 14.3191L14.4903 14.3969C14.4687 14.2889 14.4222 14.1917 14.3509 14.1052C14.2796 14.0167 14.1857 13.9464 14.069 13.8946C13.9545 13.8406 13.8173 13.8136 13.6574 13.8136C13.4435 13.8136 13.2631 13.8589 13.1162 13.9497C12.9692 14.0383 12.8958 14.1571 12.8958 14.3062C12.8958 14.425 12.9433 14.5255 13.0384 14.6076C13.1334 14.6897 13.2966 14.7556 13.5278 14.8053L14.4287 14.9868C14.9127 15.0862 15.2735 15.2461 15.5112 15.4664C15.7489 15.6868 15.8677 15.9763 15.8677 16.335C15.8677 16.6613 15.7716 16.9475 15.5793 17.1938C15.3891 17.4402 15.1277 17.6325 14.795 17.7707C14.4644 17.9069 14.083 17.9749 13.6509 17.9749C12.9919 17.9749 12.4669 17.8377 12.0758 17.5633C11.6869 17.2868 11.459 16.9108 11.392 16.4355L12.7499 16.3642C12.791 16.5651 12.8904 16.7185 13.0481 16.8244C13.2058 16.9281 13.4078 16.9799 13.6541 16.9799C13.8961 16.9799 14.0906 16.9335 14.2375 16.8406C14.3866 16.7455 14.4622 16.6234 14.4644 16.4744C14.4622 16.349 14.4093 16.2464 14.3056 16.1665C14.2019 16.0844 14.042 16.0217 13.8259 15.9785L12.9638 15.8067C12.4777 15.7095 12.1158 15.541 11.8781 15.3011C11.6426 15.0613 11.5249 14.7556 11.5249 14.384C11.5249 14.0642 11.6113 13.7887 11.7841 13.5575C11.9591 13.3263 12.2044 13.1481 12.5198 13.0228C12.8374 12.8975 13.2091 12.8348 13.6347 12.8348C14.2634 12.8348 14.7582 12.9677 15.119 13.2334C15.482 13.4992 15.6938 13.8611 15.7543 14.3191Z" fill="#10BAFE"/>
<path d="M5.96667 12.3973H5.80074V12.5632H5.96667V12.3973ZM5.96667 11.2403V11.0743H5.80074V11.2403H5.96667ZM11.4179 11.2403H11.5838V11.0743H11.4179V11.2403ZM11.4179 12.3973V12.5632H11.5838V12.3973H11.4179ZM9.38585 12.3973V12.2313H9.21991V12.3973H9.38585ZM9.38585 17.8777V18.0436H9.55178V17.8777H9.38585ZM7.99873 17.8777H7.8328V18.0436H7.99873V17.8777ZM7.99873 12.3973H8.16467V12.2313H7.99873V12.3973ZM6.13261 12.3973V11.2403H5.80074V12.3973H6.13261ZM5.96667 11.4062H11.4179V11.0743H5.96667V11.4062ZM11.252 11.2403V12.3973H11.5838V11.2403H11.252ZM11.4179 12.2313H9.38585V12.5632H11.4179V12.2313ZM9.21991 12.3973V17.8777H9.55178V12.3973H9.21991ZM9.38585 17.7118H7.99873V18.0436H9.38585V17.7118ZM8.16467 17.8777V12.3973H7.8328V17.8777H8.16467ZM7.99873 12.2313H5.96667V12.5632H7.99873V12.2313ZM15.7543 14.3191L15.7645 14.4848L15.9421 14.4738L15.9188 14.2974L15.7543 14.3191ZM14.4903 14.3969L14.3276 14.4295L14.356 14.5714L14.5005 14.5626L14.4903 14.3969ZM14.3509 14.1052L14.2217 14.2093L14.223 14.2108L14.3509 14.1052ZM14.069 13.8946L13.9982 14.0447L14.0016 14.0462L14.069 13.8946ZM13.1162 13.9497L13.2018 14.0918L13.2034 14.0909L13.1162 13.9497ZM13.0384 14.6076L12.9299 14.7332L13.0384 14.6076ZM13.5278 14.8053L13.4929 14.9675L13.495 14.968L13.5278 14.8053ZM14.4287 14.9868L14.4621 14.8242L14.4615 14.8241L14.4287 14.9868ZM15.5112 15.4664L15.3984 15.5881L15.5112 15.4664ZM15.5793 17.1938L15.4485 17.0917L15.4479 17.0925L15.5793 17.1938ZM14.795 17.7707L14.8581 17.9242L14.8586 17.924L14.795 17.7707ZM12.0758 17.5633L11.9797 17.6985L11.9805 17.6991L12.0758 17.5633ZM11.392 16.4355L11.3833 16.2698L11.2024 16.2793L11.2277 16.4586L11.392 16.4355ZM12.7499 16.3642L12.9125 16.331L12.8839 16.191L12.7412 16.1985L12.7499 16.3642ZM13.0481 16.8244L12.9556 16.9622L12.9569 16.963L13.0481 16.8244ZM14.2375 16.8406L14.3262 16.9808L14.3267 16.9805L14.2375 16.8406ZM14.4644 16.4744L14.6304 16.4768L14.6303 16.4715L14.4644 16.4744ZM14.3056 16.1665L14.2026 16.2966L14.2043 16.2979L14.3056 16.1665ZM13.8259 15.9785L13.8585 15.8158L13.8583 15.8158L13.8259 15.9785ZM12.9638 15.8067L12.9313 15.9694L12.9314 15.9695L12.9638 15.8067ZM11.8781 15.3011L11.7597 15.4174L11.7603 15.418L11.8781 15.3011ZM11.7841 13.5575L11.6518 13.4574L11.6512 13.4582L11.7841 13.5575ZM12.5198 13.0228L12.4589 12.8684L12.4586 12.8686L12.5198 13.0228ZM15.119 13.2334L15.0206 13.367L15.021 13.3673L15.119 13.2334ZM15.7441 14.1535L14.4801 14.2313L14.5005 14.5626L15.7645 14.4848L15.7441 14.1535ZM14.653 14.3644C14.626 14.229 14.5674 14.1068 14.4789 13.9996L14.223 14.2108C14.2771 14.2765 14.3115 14.3488 14.3276 14.4295L14.653 14.3644ZM14.4802 14.0012C14.3904 13.8896 14.2742 13.8042 14.1364 13.743L14.0016 14.0462C14.0971 14.0887 14.1689 14.1437 14.2217 14.2093L14.4802 14.0012ZM14.1398 13.7445C13.9981 13.6777 13.8355 13.6476 13.6574 13.6476V13.9795C13.799 13.9795 13.9108 14.0035 13.9982 14.0447L14.1398 13.7445ZM13.6574 13.6476C13.42 13.6476 13.2077 13.6981 13.029 13.8085L13.2034 14.0909C13.3185 14.0198 13.467 13.9795 13.6574 13.9795V13.6476ZM13.0305 13.8076C12.8427 13.9208 12.7298 14.0892 12.7298 14.3062H13.0617C13.0617 14.225 13.0958 14.1557 13.2018 14.0918L13.0305 13.8076ZM12.7298 14.3062C12.7298 14.4763 12.8007 14.6216 12.9299 14.7332L13.1468 14.482C13.0859 14.4294 13.0617 14.3737 13.0617 14.3062H12.7298ZM12.9299 14.7332C13.0575 14.8433 13.2546 14.9163 13.4929 14.9675L13.5626 14.6431C13.3386 14.5949 13.2094 14.536 13.1468 14.482L12.9299 14.7332ZM13.495 14.968L14.396 15.1494L14.4615 14.8241L13.5605 14.6426L13.495 14.968ZM14.3954 15.1493C14.864 15.2456 15.1917 15.3965 15.3984 15.5881L15.624 15.3448C15.3554 15.0956 14.9614 14.9268 14.4621 14.8242L14.3954 15.1493ZM15.3984 15.5881C15.5984 15.7736 15.7018 16.0171 15.7018 16.335H16.0336C16.0336 15.9356 15.8994 15.6001 15.624 15.3448L15.3984 15.5881ZM15.7018 16.335C15.7018 16.626 15.6169 16.8759 15.4485 17.0917L15.7101 17.296C15.9262 17.0191 16.0336 16.6965 16.0336 16.335H15.7018ZM15.4479 17.0925C15.2781 17.3125 15.0416 17.4885 14.7313 17.6175L14.8586 17.924C15.2138 17.7764 15.5002 17.5678 15.7106 17.2952L15.4479 17.0925ZM14.7318 17.6173C14.425 17.7436 14.0658 17.809 13.6509 17.809V18.1408C14.1003 18.1408 14.5038 18.0701 14.8581 17.9242L14.7318 17.6173ZM13.6509 17.809C13.0134 17.809 12.5255 17.6761 12.1711 17.4275L11.9805 17.6991C12.4083 17.9993 12.9704 18.1408 13.6509 18.1408V17.809ZM12.172 17.4281C11.8205 17.1781 11.617 16.8428 11.5563 16.4123L11.2277 16.4586C11.301 16.9788 11.5534 17.3954 11.9797 17.6985L12.172 17.4281ZM11.4007 16.6012L12.7586 16.5299L12.7412 16.1985L11.3833 16.2698L11.4007 16.6012ZM12.5874 16.3974C12.6364 16.6373 12.7586 16.8299 12.9556 16.9622L13.1406 16.6866C13.0221 16.6071 12.9456 16.4929 12.9125 16.331L12.5874 16.3974ZM12.9569 16.963C13.1489 17.0892 13.3852 17.1459 13.6542 17.1459V16.814C13.4305 16.814 13.2628 16.767 13.1393 16.6857L12.9569 16.963ZM13.6542 17.1459C13.9157 17.1459 14.1443 17.0959 14.3262 16.9808L14.1488 16.7003C14.0369 16.7711 13.8766 16.814 13.6542 16.814V17.1459ZM14.3267 16.9805C14.5128 16.8619 14.6272 16.6927 14.6303 16.4768L14.2985 16.472C14.2973 16.5542 14.2604 16.6292 14.1483 16.7007L14.3267 16.9805ZM14.6303 16.4715C14.6272 16.2932 14.5485 16.1442 14.4069 16.0351L14.2043 16.2979C14.2701 16.3486 14.2972 16.4049 14.2985 16.4772L14.6303 16.4715ZM14.4086 16.0364C14.2749 15.9306 14.0852 15.8611 13.8585 15.8158L13.7934 16.1412C13.9988 16.1823 14.1288 16.2382 14.2026 16.2966L14.4086 16.0364ZM13.8583 15.8158L12.9963 15.644L12.9314 15.9695L13.7935 16.1412L13.8583 15.8158ZM12.9964 15.644C12.5283 15.5504 12.2019 15.3921 11.996 15.1843L11.7603 15.418C12.0297 15.6898 12.4271 15.8686 12.9313 15.9694L12.9964 15.644ZM11.9965 15.1849C11.7948 14.9795 11.6908 14.7171 11.6908 14.384H11.3589C11.3589 14.7941 11.4904 15.1431 11.7597 15.4174L11.9965 15.1849ZM11.6908 14.384C11.6908 14.0959 11.7679 13.8563 11.917 13.6569L11.6512 13.4582C11.4546 13.7211 11.3589 14.0324 11.3589 14.384H11.6908ZM11.9164 13.6577C12.0702 13.4545 12.2889 13.293 12.5811 13.177L12.4586 12.8686C12.1198 13.0031 11.8481 13.1982 11.6518 13.4574L11.9164 13.6577ZM12.5807 13.1771C12.8748 13.0611 13.225 13.0007 13.6347 13.0007V12.6689C13.1932 12.6689 12.8001 12.7338 12.4589 12.8684L12.5807 13.1771ZM13.6347 13.0007C14.2419 13.0007 14.6978 13.1292 15.0206 13.367L15.2175 13.0998C14.8187 12.8061 14.285 12.6689 13.6347 12.6689V13.0007ZM15.021 13.3673C15.3464 13.6055 15.535 13.9263 15.5898 14.3409L15.9188 14.2974C15.8525 13.7958 15.6177 13.3929 15.2171 13.0995L15.021 13.3673Z" fill="#2B3036"/>
</g>
</g>
<defs>
<filter id="filter0_d_64_6854" x="0.66243" y="0.414917" width="21.2396" height="27.0475" filterUnits="userSpaceOnUse" color-interpolation-filters="sRGB">
<feFlood flood-opacity="0" result="BackgroundImageFix"/>
<feColorMatrix in="SourceAlpha" type="matrix" values="0 0 0 0 0 0 0 0 0 0 0 0 0 0 0 0 0 0 127 0" result="hardAlpha"/>
<feOffset dy="0.663742"/>
<feGaussianBlur stdDeviation="0.331871"/>
<feColorMatrix type="matrix" values="0 0 0 0 0 0 0 0 0 0 0 0 0 0 0 0 0 0 0.25 0"/>
<feBlend mode="normal" in2="BackgroundImageFix" result="effect1_dropShadow_64_6854"/>
<feBlend mode="normal" in="SourceGraphic" in2="effect1_dropShadow_64_6854" result="shape"/>
</filter>
<filter id="filter1_d_64_6854" x="5.30305" y="10.7424" width="11.2289" height="8.0621" filterUnits="userSpaceOnUse" color-interpolation-filters="sRGB">
<feFlood flood-opacity="0" result="BackgroundImageFix"/>
<feColorMatrix in="SourceAlpha" type="matrix" values="0 0 0 0 0 0 0 0 0 0 0 0 0 0 0 0 0 0 127 0" result="hardAlpha"/>
<feOffset dy="0.165935"/>
<feGaussianBlur stdDeviation="0.331871"/>
<feColorMatrix type="matrix" values="0 0 0 0 0 0 0 0 0 0 0 0 0 0 0 0 0 0 0.25 0"/>
<feBlend mode="normal" in2="BackgroundImageFix" result="effect1_dropShadow_64_6854"/>
<feBlend mode="normal" in="SourceGraphic" in2="effect1_dropShadow_64_6854" result="shape"/>
</filter>
</defs>
</svg>
