<svg width="64" height="57" viewBox="0 0 64 57" fill="none" xmlns="http://www.w3.org/2000/svg">
<g filter="url(#filter0_d_33_4)">
<rect x="4" width="56" height="48.063" rx="8" fill="#34304D"/>
</g>
<path d="M14.9715 17.0239C14.6098 16.6666 14.0069 16.6666 13.6452 17.0239L7.3073 23.2835C7.23744 23.3524 7.18201 23.4342 7.1442 23.5242C7.10638 23.6142 7.08691 23.7108 7.08691 23.8082C7.08691 23.9057 7.10638 24.0023 7.1442 24.0923C7.18201 24.1823 7.23744 24.2641 7.3073 24.333L13.6452 30.5926C14.0144 30.9573 14.6098 30.9573 14.979 30.5926C15.3483 30.2279 15.3483 29.6399 14.979 29.2752L9.44002 23.812L14.979 18.3413C15.3408 17.9766 15.3408 17.3886 14.9715 17.0239Z" fill="#7FD541"/>
<path d="M14.9715 17.0239C14.6098 16.6666 14.0069 16.6666 13.6452 17.0239L7.3073 23.2835C7.23744 23.3524 7.18201 23.4342 7.1442 23.5242C7.10638 23.6142 7.08691 23.7108 7.08691 23.8082C7.08691 23.9057 7.10638 24.0023 7.1442 24.0923C7.18201 24.1823 7.23744 24.2641 7.3073 24.333L13.6452 30.5926C14.0144 30.9573 14.6098 30.9573 14.979 30.5926C15.3483 30.2279 15.3483 29.6399 14.979 29.2752L9.44002 23.812L14.979 18.3413C15.3408 17.9766 15.3408 17.3886 14.9715 17.0239Z" stroke="#7FD541"/>
<path d="M21.0402 17.0239C21.4019 16.6666 22.0048 16.6666 22.3666 17.0239L28.7044 23.2835C28.7743 23.3524 28.8297 23.4342 28.8675 23.5242C28.9053 23.6142 28.9248 23.7108 28.9248 23.8082C28.9248 23.9057 28.9053 24.0023 28.8675 24.0923C28.8297 24.1823 28.7743 24.2641 28.7044 24.333L22.3666 30.5926C21.9973 30.9573 21.4019 30.9573 21.0327 30.5926C20.6634 30.2279 20.6634 29.6399 21.0327 29.2752L26.5717 23.812L21.0327 18.3413C20.6709 17.9766 20.6709 17.3886 21.0402 17.0239Z" fill="#7FD541"/>
<path d="M32.2207 0H52.0002C56.4185 0 60.0002 3.58172 60.0002 8V40.063C60.0002 44.4813 56.4185 48.063 52.0002 48.063H32.2207V0Z" fill="#F8F8F8"/>
<rect x="34.4258" y="15.874" width="23.7646" height="2.97058" rx="1.48529" fill="#34304D"/>
<rect x="34.4258" y="15.874" width="23.7646" height="2.97058" rx="1.48529" fill="#34304D"/>
<rect x="34.4258" y="15.874" width="23.7646" height="2.97058" rx="1.48529" fill="#34304D"/>
<rect x="34.4258" y="28.499" width="23.7646" height="2.97058" rx="1.48529" fill="#34304D"/>
<rect x="34.4258" y="28.499" width="23.7646" height="2.97058" rx="1.48529" fill="#34304D"/>
<rect x="34.4258" y="28.499" width="23.7646" height="2.97058" rx="1.48529" fill="#34304D"/>
<rect x="34.4258" y="22.1865" width="18.1948" height="2.97058" rx="1.48529" fill="#34304D"/>
<rect x="34.4258" y="22.1865" width="18.1948" height="2.97058" rx="1.48529" fill="#34304D"/>
<rect x="34.4258" y="22.1865" width="18.1948" height="2.97058" rx="1.48529" fill="#34304D"/>
<defs>
<filter id="filter0_d_33_4" x="0" y="0" width="64" height="56.063" filterUnits="userSpaceOnUse" color-interpolation-filters="sRGB">
<feFlood flood-opacity="0" result="BackgroundImageFix"/>
<feColorMatrix in="SourceAlpha" type="matrix" values="0 0 0 0 0 0 0 0 0 0 0 0 0 0 0 0 0 0 127 0" result="hardAlpha"/>
<feOffset dy="4"/>
<feGaussianBlur stdDeviation="2"/>
<feColorMatrix type="matrix" values="0 0 0 0 0 0 0 0 0 0 0 0 0 0 0 0 0 0 0.25 0"/>
<feBlend mode="normal" in2="BackgroundImageFix" result="effect1_dropShadow_33_4"/>
<feBlend mode="normal" in="SourceGraphic" in2="effect1_dropShadow_33_4" result="shape"/>
</filter>
</defs>
</svg>
